# xmcd CD database file
#
# Track frame offsets:
#	150
#	13141
#	28416
#	42120
#	53500
#	68217
#	81993
#	95433
#	109803
#	124238
#	139123
#	153732
#	170124
#	183174
#	210998
#
# Disc length: 3020 seconds
#
# Revision: 0
# Processed by: cddbd v1.5.2PL0 Copyright (c) Steve Scherf et al.
# Submitted via: CDex 1.51
#
DISCID=d10bca0f
DTITLE=João Carreiro e Capataz - João Carreiro e Capataz
DYEAR=2008
DGENRE=Country
TTITLE0=João Carreiro e Capataz - O Que Será Que Nois Não Tem
TTITLE1=João Carreiro e Capataz - Faculdade da Ping
TTITLE2=João Carreiro e Capataz - Xique Bacanizado
TTITLE3=João Carreiro e Capataz - O Meu Bem Maior
TTITLE4=João Carreiro e Capataz - Campo Grande e Cuiaba
TTITLE5=João Carreiro e Capataz - Tobas Bar
TTITLE6=João Carreiro e Capataz - To Facim Facim
TTITLE7=João Carreiro e Capataz - Deu Sopa Eu Como
TTITLE8=João Carreiro e Capataz - Vai Dia
TTITLE9=João Carreiro e Capataz - Larga Pra Que
TTITLE10=João Carreiro e Capataz - Beber No Cabare
TTITLE11=João Carreiro e Capataz - Caiu Levanta
TTITLE12=João Carreiro e Capataz - Ta Bagunçado Mais Tem Gerencia
TTITLE13=João Carreiro e Capataz - Pout Porri Pagodes
TTITLE14=João Carreiro e Capataz - Pobrema
EXTD=YEAR: 2008
EXTT0=
EXTT1=
EXTT2=
EXTT3=
EXTT4=
EXTT5=
EXTT6=
EXTT7=
EXTT8=
EXTT9=
EXTT10=
EXTT11=
EXTT12=
EXTT13=
EXTT14=
PLAYORDER=
